<svg xmlns="http://www.w3.org/2000/svg" xmlns:dc="http://purl.org/dc/elements/1.1/" xmlns:ns1="http://www.inkscape.org/namespaces/inkscape" xmlns:ns2="http://www.openswatchbook.org/uri/2009/osb" xmlns:ns3="http://sodipodi.sourceforge.net/DTD/sodipodi-0.dtd" xmlns:ns5="http://creativecommons.org/ns#" xmlns:rdf="http://www.w3.org/1999/02/22-rdf-syntax-ns#" width="300" height="400" viewBox="0 0 300 400">
    <g id="layer1">
        <path id="rect4164" fill="#f5f0eb" stroke="none" d="M 40 -0.078644 L 260.05896 -0.078644 C 282.15036 -0.078644 300.05896 17.829987 300.05896 39.921356 L 300.05896 360.699432 C 300.05896 382.790802 282.15036 400.699493 260.05896 400.699493 L 40 400.699493 C 17.908609 400.699493 0 382.790802 0 360.699432 L 0 39.921356 C 0 17.829987 17.908609 -0.078644 40 -0.078644 Z" />
        <filter id="filter1" x="0" y="0" width="300" height="400" filterUnits="userSpaceOnUse" primitiveUnits="userSpaceOnUse" color-interpolation-filters="sRGB">
            <feGaussianBlur stdDeviation="2.51" />
        </filter>
        <path id="path4166" fill="#ffffff" fill-rule="evenodd" stroke="none" filter="url(#filter1)" d="M 5.749585 123.960052 C 1.059294 94.744995 -5.854341 34.896484 9.102864 15.312103 C 28.58617 -7.759094 234.690918 -2.735626 263.337128 16.942505 C 275.73172 24.661011 77.927017 25.078491 55.587055 50.360779 C 33.767704 74.533691 10.956804 162.043167 5.749585 123.960052 Z" />
        <filter id="filter2" x="0" y="0" width="300" height="400" filterUnits="userSpaceOnUse" primitiveUnits="userSpaceOnUse" color-interpolation-filters="sRGB">
            <feGaussianBlur stdDeviation="2.51" />
        </filter>
        <path id="path4221" fill="#000000" fill-opacity="0.196078" fill-rule="evenodd" stroke="none" filter="url(#filter2)" d="M 300.202179 300.507141 C 303.528992 309.820923 310.450592 368.96106 294.883972 391.133667 C 274.606812 417.254028 75.448372 407.591675 63.328899 401.065552 C 52.254589 395.748535 241.932571 401.006653 268.180176 366.199097 C 289.773651 336.198486 294.68103 284.020691 300.202179 300.507141 Z" />
    </g>
<defs id="defs4">
    <ns1:path-effect effect="skeletal" id="path-effect7963" is_visible="true" pattern="m -90.825902,-314.06958 23.03016,41.38503 13.798268,-41.38503 z" copytype="repeated_stretched" prop_scale="1" scale_y_rel="false" spacing="0" normal_offset="0" tang_offset="0" prop_units="false" vertical_pattern="false" fuse_tolerance="0" pattern-nodetypes="cccc" />
    <ns1:path-effect effect="skeletal" id="path-effect7830" is_visible="true" pattern="M -12.828427,33.715729 -17,-11 l 9.0000001,0 z" copytype="repeated_stretched" prop_scale="-1" scale_y_rel="false" spacing="5.1" normal_offset="0" tang_offset="0" prop_units="false" vertical_pattern="false" fuse_tolerance="0" pattern-nodetypes="cccc" />
    <linearGradient id="linearGradient10055" ns2:paint="solid">
      <stop style="stop-color:#000000;stop-opacity:1;" offset="0" id="stop10057" />
    </linearGradient>
    <marker ns1:stockid="Arrow1Lstart" orient="auto" refY="0" refX="0" id="Arrow1Lstart" style="overflow:visible" ns1:isstock="true">
      <path id="path4978" d="M 0,0 5,-5 -12.5,0 5,5 0,0 Z" style="fill:#000000;fill-opacity:1;fill-rule:evenodd;stroke:#ff5c00;stroke-width:1pt;stroke-opacity:1" transform="matrix(0.8,0,0,0.8,10,0)" ns1:connector-curvature="0" />
    </marker>
    <clipPath clipPathUnits="userSpaceOnUse" id="clipPath4243">
      <circle style="opacity:1;fill:#000000;fill-opacity:0.29670332;fill-rule:nonzero;stroke:#000000;stroke-width:19.13299942;stroke-linecap:butt;stroke-linejoin:round;stroke-miterlimit:4;stroke-dasharray:none;stroke-dashoffset:0;stroke-opacity:1" id="circle4245" cx="-264.65997" cy="-198.20665" r="293.95438" />
    </clipPath>
    <clipPath clipPathUnits="userSpaceOnUse" id="clipPath7847">
      <ellipse style="opacity:1;fill:#822600;fill-opacity:1;fill-rule:nonzero;stroke:none;stroke-width:12;stroke-linecap:round;stroke-linejoin:round;stroke-miterlimit:4;stroke-dasharray:none;stroke-dashoffset:0;stroke-opacity:1" id="ellipse7849" cx="394" cy="552.36218" rx="349.49533" ry="216" />
    </clipPath>
    <clipPath clipPathUnits="userSpaceOnUse" id="clipPath4243-1">
      <circle style="opacity:1;fill:#000000;fill-opacity:0.29670332;fill-rule:nonzero;stroke:#000000;stroke-width:19.13299942;stroke-linecap:butt;stroke-linejoin:round;stroke-miterlimit:4;stroke-dasharray:none;stroke-dashoffset:0;stroke-opacity:1" id="circle4245-4" cx="-264.65997" cy="-198.20665" r="293.95438" />
    </clipPath>
    <clipPath clipPathUnits="userSpaceOnUse" id="clipPath7876">
      <circle style="opacity:1;fill:#000000;fill-opacity:0.29670332;fill-rule:nonzero;stroke:#000000;stroke-width:19.13299942;stroke-linecap:butt;stroke-linejoin:round;stroke-miterlimit:4;stroke-dasharray:none;stroke-dashoffset:0;stroke-opacity:1" id="circle7878" cx="-264.65997" cy="-198.20665" r="293.95438" />
    </clipPath>
    <clipPath clipPathUnits="userSpaceOnUse" id="clipPath14693">
      <rect style="opacity:1;fill:#a53c3c;fill-opacity:1;fill-rule:nonzero;stroke:none;stroke-width:8;stroke-linecap:round;stroke-linejoin:round;stroke-miterlimit:4;stroke-dasharray:none;stroke-dashoffset:0;stroke-opacity:1" id="rect14695" width="131.78395" height="168.82127" x="-332.59583" y="383.49765" rx="1.2551664" ry="3.7514515" transform="matrix(0.99939083,-0.03489951,0.03489951,0.99939083,0,0)" />
    </clipPath>
    <clipPath clipPathUnits="userSpaceOnUse" id="clipPath14952">
      <ellipse style="opacity:1;fill:#a53c3c;fill-opacity:1;fill-rule:nonzero;stroke:none;stroke-width:7;stroke-linecap:round;stroke-linejoin:round;stroke-miterlimit:4;stroke-dasharray:none;stroke-dashoffset:0;stroke-opacity:1" id="ellipse14954" cx="-271.34384" cy="647.25604" rx="69.057365" ry="116.91089" transform="matrix(0.99939083,-0.03489951,0.03489951,0.99939083,0,0)" />
    </clipPath>
    <pattern y="0" x="0" height="6" width="6" patternUnits="userSpaceOnUse" id="EMFhbasepattern" />
  </defs>
  <ns3:namedview id="base" pagecolor="#aeffff" bordercolor="#666666" borderopacity="1" ns1:pageopacity="0" ns1:pageshadow="2" ns1:zoom="1.4297189" ns1:cx="148.19657" ns1:cy="260.89845" ns1:document-units="px" ns1:current-layer="layer1" showgrid="true" ns1:window-width="1920" ns1:window-height="1017" ns1:window-x="1912" ns1:window-y="-8" ns1:window-maximized="1" showguides="true" ns1:guide-bbox="true" units="px">
    <ns1:grid type="xygrid" id="grid4774" visible="true" dotted="false" color="#3f3fff" opacity="0.03921569" empcolor="#3f3fff" empopacity="0.07843137" enabled="false" />
    <ns3:guide position="150,200" orientation="0,1" id="guide8231" ns1:label="" ns1:color="rgb(0,0,255)" />
    <ns3:guide position="150,200" orientation="1,0" id="guide8233" ns1:label="" ns1:color="rgb(0,0,255)" />
  </ns3:namedview>
  <metadata id="metadata7">
    <rdf:RDF>
      <ns5:Work rdf:about="">
        <dc:format>image/svg+xml</dc:format>
        <dc:type rdf:resource="http://purl.org/dc/dcmitype/StillImage" />
        <dc:title />
      </ns5:Work>
    </rdf:RDF>
  </metadata>
  <g ns1:label="Layer 1" ns1:groupmode="layer" id="layer1" transform="translate(0,-652.36216)">
    <g id="g8162" transform="matrix(0.76410471,0,0,0.76410471,-168.70793,381.16585)">
      <path style="fill:#b93c3c;fill-opacity:1;fill-rule:evenodd;stroke:none;stroke-width:1px;stroke-linecap:butt;stroke-linejoin:miter;stroke-opacity:1" d="m 233.73438,85.414062 c -62.01799,16.681888 -86.27161,21.909318 -166.158208,42.853518 -5.42522,-0.0965 -16.534496,-0.92756 -21.67167,-9.50781 -4.758196,-5.91895 -9.703104,0.68112 -9.437615,6.74218 0.365058,8.33409 0.598367,15.29187 4.480584,19.20117 21.664177,19.95035 29.078065,41.32218 32.222451,65.74024 -0.33085,5.21114 -4.62276,10.00283 3.193359,9.64844 7.869133,-0.58359 84.263689,-6.62945 140.414059,-1.69336 4.64178,0.47659 5.45942,-3.68138 5.15039,-5.39063 -2.64249,-14.6159 24.33847,-61.36206 33.375,-80.47461 1.86244,-3.9391 11.81804,-4.43434 13.9336,-4.93945 -0.13937,0.0348 2.86207,-1.72444 1.0957,-3.91406 C 259.613,110.39214 237.46714,84.235655 233.73438,85.414062 Z m -21.27735,34.902348 c 9.08657,0.0687 13.4201,2.43096 9.83008,8.34961 -11.11464,22.31009 -24.24336,65.93624 -28.21484,65.26367 -61.3062,-0.41953 -87.92695,4.0617 -94.01563,2.04687 -2.199134,-0.81536 -5.411834,-24.89934 -19.332875,-42.17976 -2.189357,-2.71769 -1.286435,-4.69532 2.253906,-5.55664 20.628929,-4.6163 99.796559,-28.14827 129.479359,-27.92375 z" transform="matrix(1.3087212,0,0,1.3087212,219.31497,352.30291)" id="path8156" ns1:connector-curvature="0" ns3:nodetypes="cccsccccsscscscccscs" />
      <path ns3:nodetypes="cccccsccccc" ns1:connector-curvature="0" id="path8160" d="m 367.90999,395.10475 c 0.37549,4.16112 -0.17568,12.40731 6.29079,14.78577 5.6162,0.58559 19.75278,11.44606 16.95438,28.57096 0.0928,187.92712 3.32312,200.16425 0.3131,345.45795 -5.62614,52.57681 6.73403,80.47048 10.82199,86.96513 2.93545,6.59024 6.12648,5.51697 7.60418,1.43859 12.97863,-35.82036 18.66091,-12.55418 14.70196,-102.90205 -0.58086,-150.13908 -2.88642,-315.64694 19.06631,-327.81061 8.67123,-6.96222 20.05495,-28.68846 17.34799,-33.72755 3.10315,-4.97486 -50.62215,-54.03954 -55.12546,-49.49693 -7.36818,8.03967 -36.64575,21.9603 -37.97524,36.71874 z" style="fill:#b93c3c;fill-opacity:1;fill-rule:evenodd;stroke:none;stroke-width:1px;stroke-linecap:butt;stroke-linejoin:miter;stroke-opacity:1" />
    </g>
  </g>
</svg>