<?xml version="1.0" encoding="UTF-8"?>
<!-- Generated by Pixelmator Pro 3.7.1 -->
<svg width="300" height="400" viewBox="0 0 300 400" xmlns="http://www.w3.org/2000/svg">
    <g id="layer1">
        <path id="rect4164" fill="#f5f0eb" stroke="none" d="M 40 -0.078644 L 260.05896 -0.078644 C 282.15036 -0.078644 300.05896 17.829987 300.05896 39.921356 L 300.05896 360.699432 C 300.05896 382.790802 282.15036 400.699493 260.05896 400.699493 L 40 400.699493 C 17.908609 400.699493 0 382.790802 0 360.699432 L 0 39.921356 C 0 17.829987 17.908609 -0.078644 40 -0.078644 Z"/>
        <filter id="filter1" x="0" y="0" width="300" height="400" filterUnits="userSpaceOnUse" primitiveUnits="userSpaceOnUse" color-interpolation-filters="sRGB">
            <feGaussianBlur stdDeviation="2.51"/>
        </filter>
        <path id="path4166" fill="#ffffff" fill-rule="evenodd" stroke="none" filter="url(#filter1)" d="M 5.749585 123.960052 C 1.059294 94.744995 -5.854341 34.896484 9.102864 15.312103 C 28.58617 -7.759094 234.690918 -2.735626 263.337128 16.942505 C 275.73172 24.661011 77.927017 25.078491 55.587055 50.360779 C 33.767704 74.533691 10.956804 162.043167 5.749585 123.960052 Z"/>
        <filter id="filter2" x="0" y="0" width="300" height="400" filterUnits="userSpaceOnUse" primitiveUnits="userSpaceOnUse" color-interpolation-filters="sRGB">
            <feGaussianBlur stdDeviation="2.51"/>
        </filter>
        <path id="path4221" fill="#000000" fill-opacity="0.196078" fill-rule="evenodd" stroke="none" filter="url(#filter2)" d="M 300.202179 300.507141 C 303.528992 309.820923 310.450592 368.96106 294.883972 391.133667 C 274.606812 417.254028 75.448372 407.591675 63.328899 401.065552 C 52.254589 395.748535 241.932571 401.006653 268.180176 366.199097 C 289.773651 336.198486 294.68103 284.020691 300.202179 300.507141 Z"/>
    </g>
</svg>
