<svg xmlns="http://www.w3.org/2000/svg" xmlns:dc="http://purl.org/dc/elements/1.1/" xmlns:ns1="http://www.inkscape.org/namespaces/inkscape" xmlns:ns2="http://www.openswatchbook.org/uri/2009/osb" xmlns:ns3="http://sodipodi.sourceforge.net/DTD/sodipodi-0.dtd" xmlns:ns5="http://creativecommons.org/ns#" xmlns:ns7="http://www.w3.org/1999/xlink" xmlns:rdf="http://www.w3.org/1999/02/22-rdf-syntax-ns#" width="300" height="400" viewBox="0 0 300 400">
    <g id="layer1">
        <path id="rect4164" fill="#f5f0eb" stroke="none" d="M 40 -0.078644 L 260.05896 -0.078644 C 282.15036 -0.078644 300.05896 17.829987 300.05896 39.921356 L 300.05896 360.699432 C 300.05896 382.790802 282.15036 400.699493 260.05896 400.699493 L 40 400.699493 C 17.908609 400.699493 0 382.790802 0 360.699432 L 0 39.921356 C 0 17.829987 17.908609 -0.078644 40 -0.078644 Z" />
        <filter id="filter1" x="0" y="0" width="300" height="400" filterUnits="userSpaceOnUse" primitiveUnits="userSpaceOnUse" color-interpolation-filters="sRGB">
            <feGaussianBlur stdDeviation="2.51" />
        </filter>
        <path id="path4166" fill="#ffffff" fill-rule="evenodd" stroke="none" filter="url(#filter1)" d="M 5.749585 123.960052 C 1.059294 94.744995 -5.854341 34.896484 9.102864 15.312103 C 28.58617 -7.759094 234.690918 -2.735626 263.337128 16.942505 C 275.73172 24.661011 77.927017 25.078491 55.587055 50.360779 C 33.767704 74.533691 10.956804 162.043167 5.749585 123.960052 Z" />
        <filter id="filter2" x="0" y="0" width="300" height="400" filterUnits="userSpaceOnUse" primitiveUnits="userSpaceOnUse" color-interpolation-filters="sRGB">
            <feGaussianBlur stdDeviation="2.51" />
        </filter>
        <path id="path4221" fill="#000000" fill-opacity="0.196078" fill-rule="evenodd" stroke="none" filter="url(#filter2)" d="M 300.202179 300.507141 C 303.528992 309.820923 310.450592 368.96106 294.883972 391.133667 C 274.606812 417.254028 75.448372 407.591675 63.328899 401.065552 C 52.254589 395.748535 241.932571 401.006653 268.180176 366.199097 C 289.773651 336.198486 294.68103 284.020691 300.202179 300.507141 Z" />
    </g>
<defs id="defs4">
    <ns1:path-effect effect="skeletal" id="path-effect7963" is_visible="true" pattern="m -90.825902,-314.06958 23.03016,41.38503 21.477976,-41.38503 z" copytype="repeated_stretched" prop_scale="1" scale_y_rel="false" spacing="0" normal_offset="0" tang_offset="0" prop_units="false" vertical_pattern="false" fuse_tolerance="0" pattern-nodetypes="cccc" />
    <ns1:path-effect effect="skeletal" id="path-effect7830" is_visible="true" pattern="M -12.828427,33.715729 -17,-11 l 9.0000001,0 z" copytype="repeated_stretched" prop_scale="-1" scale_y_rel="false" spacing="5.1" normal_offset="0" tang_offset="0" prop_units="false" vertical_pattern="false" fuse_tolerance="0" pattern-nodetypes="cccc" />
    <linearGradient id="linearGradient10055" ns2:paint="solid">
      <stop style="stop-color:#000000;stop-opacity:1;" offset="0" id="stop10057" />
    </linearGradient>
    <marker ns1:stockid="Arrow1Lstart" orient="auto" refY="0" refX="0" id="Arrow1Lstart" style="overflow:visible" ns1:isstock="true">
      <path id="path4978" d="M 0,0 5,-5 -12.5,0 5,5 0,0 Z" style="fill:#000000;fill-opacity:1;fill-rule:evenodd;stroke:#ff5c00;stroke-width:1pt;stroke-opacity:1" transform="matrix(0.8,0,0,0.8,10,0)" ns1:connector-curvature="0" />
    </marker>
    <clipPath clipPathUnits="userSpaceOnUse" id="clipPath4243">
      <circle style="opacity:1;fill:#000000;fill-opacity:0.29670332;fill-rule:nonzero;stroke:#000000;stroke-width:19.13299942;stroke-linecap:butt;stroke-linejoin:round;stroke-miterlimit:4;stroke-dasharray:none;stroke-dashoffset:0;stroke-opacity:1" id="circle4245" cx="-264.65997" cy="-198.20665" r="293.95438" />
    </clipPath>
    <clipPath clipPathUnits="userSpaceOnUse" id="clipPath7847">
      <ellipse style="opacity:1;fill:#822600;fill-opacity:1;fill-rule:nonzero;stroke:none;stroke-width:12;stroke-linecap:round;stroke-linejoin:round;stroke-miterlimit:4;stroke-dasharray:none;stroke-dashoffset:0;stroke-opacity:1" id="ellipse7849" cx="394" cy="552.36218" rx="349.49533" ry="216" />
    </clipPath>
    <clipPath clipPathUnits="userSpaceOnUse" id="clipPath4243-1">
      <circle style="opacity:1;fill:#000000;fill-opacity:0.29670332;fill-rule:nonzero;stroke:#000000;stroke-width:19.13299942;stroke-linecap:butt;stroke-linejoin:round;stroke-miterlimit:4;stroke-dasharray:none;stroke-dashoffset:0;stroke-opacity:1" id="circle4245-4" cx="-264.65997" cy="-198.20665" r="293.95438" />
    </clipPath>
    <clipPath clipPathUnits="userSpaceOnUse" id="clipPath7876">
      <circle style="opacity:1;fill:#000000;fill-opacity:0.29670332;fill-rule:nonzero;stroke:#000000;stroke-width:19.13299942;stroke-linecap:butt;stroke-linejoin:round;stroke-miterlimit:4;stroke-dasharray:none;stroke-dashoffset:0;stroke-opacity:1" id="circle7878" cx="-264.65997" cy="-198.20665" r="293.95438" />
    </clipPath>
    <clipPath clipPathUnits="userSpaceOnUse" id="clipPath14693">
      <rect style="opacity:1;fill:#a53c3c;fill-opacity:1;fill-rule:nonzero;stroke:none;stroke-width:8;stroke-linecap:round;stroke-linejoin:round;stroke-miterlimit:4;stroke-dasharray:none;stroke-dashoffset:0;stroke-opacity:1" id="rect14695" width="131.78395" height="168.82127" x="-332.59583" y="383.49765" rx="1.2551664" ry="3.7514515" transform="matrix(0.99939083,-0.03489951,0.03489951,0.99939083,0,0)" />
    </clipPath>
    <clipPath clipPathUnits="userSpaceOnUse" id="clipPath14952">
      <ellipse style="opacity:1;fill:#a53c3c;fill-opacity:1;fill-rule:nonzero;stroke:none;stroke-width:7;stroke-linecap:round;stroke-linejoin:round;stroke-miterlimit:4;stroke-dasharray:none;stroke-dashoffset:0;stroke-opacity:1" id="ellipse14954" cx="-271.34384" cy="647.25604" rx="69.057365" ry="116.91089" transform="matrix(0.99939083,-0.03489951,0.03489951,0.99939083,0,0)" />
    </clipPath>
    <pattern y="0" x="0" height="6" width="6" patternUnits="userSpaceOnUse" id="EMFhbasepattern" />
  </defs>
  <ns3:namedview id="base" pagecolor="#aeffff" bordercolor="#666666" borderopacity="1" ns1:pageopacity="0" ns1:pageshadow="2" ns1:zoom="1.4297189" ns1:cx="243.05578" ns1:cy="172.62628" ns1:document-units="px" ns1:current-layer="layer1" showgrid="true" ns1:window-width="1920" ns1:window-height="1017" ns1:window-x="1912" ns1:window-y="-8" ns1:window-maximized="1" showguides="true" ns1:guide-bbox="true" units="px">
    <ns1:grid type="xygrid" id="grid4774" visible="true" dotted="false" color="#3f3fff" opacity="0.03921569" empcolor="#3f3fff" empopacity="0.07843137" enabled="false" />
    <ns3:guide position="150,200" orientation="0,1" id="guide8231" ns1:label="" ns1:color="rgb(0,0,255)" />
    <ns3:guide position="150,200" orientation="1,0" id="guide8233" ns1:label="" ns1:color="rgb(0,0,255)" />
  </ns3:namedview>
  <metadata id="metadata7">
    <rdf:RDF>
      <ns5:Work rdf:about="">
        <dc:format>image/svg+xml</dc:format>
        <dc:type rdf:resource="http://purl.org/dc/dcmitype/StillImage" />
        <dc:title />
      </ns5:Work>
    </rdf:RDF>
  </metadata>
  <g ns1:label="Layer 1" ns1:groupmode="layer" id="layer1" transform="translate(0,-652.36216)">
    <g id="g7625" transform="translate(-3.570741e-7,-0.81785177)">
      <g transform="matrix(0.76584228,0,0,0.76584228,512.08203,490.47575)" id="g4360">
        <circle style="opacity:1;fill:#ffffff;fill-opacity:1;fill-rule:nonzero;stroke:#000000;stroke-width:17.21711159;stroke-linecap:butt;stroke-linejoin:round;stroke-miterlimit:4;stroke-dasharray:none;stroke-dashoffset:0;stroke-opacity:1" id="path15137" cx="-472.78326" cy="341.25565" r="107.56709" />
        <circle style="opacity:1;fill:#000037;fill-opacity:1;fill-rule:nonzero;stroke:none;stroke-width:0;stroke-linecap:butt;stroke-linejoin:round;stroke-miterlimit:4;stroke-dasharray:none;stroke-dashoffset:0;stroke-opacity:0" id="path15137-2" cx="-472.78326" cy="341.62653" r="87.813393" />
        <g id="g4247" transform="matrix(0.10477442,0,0,0.08587532,-506.32882,359.1076)" ns1:transform-center-x="-8.4743063">
          <path d="m -93.329197,-74.125463 a 163.9187,163.9187 0 0 1 -224.595053,-13.081173 163.9187,163.9187 0 0 1 0,-224.975674 163.9187,163.9187 0 0 1 224.595055,-13.08117" ns3:open="true" ns3:end="5.4105207" ns3:start="0.87266463" ns3:ry="163.9187" ns3:rx="163.9187" ns3:cy="-199.69447" ns3:cx="-198.69411" ns3:type="arc" mask="none" style="opacity:1;fill:none;fill-opacity:1;fill-rule:nonzero;stroke:#ffffff;stroke-width:125.71019745;stroke-linecap:round;stroke-linejoin:round;stroke-miterlimit:4;stroke-dasharray:none;stroke-dashoffset:0;stroke-opacity:1" id="circle15184" />
        </g>
        <use x="0" y="0" ns7:href="#g4247" ns1:transform-center-x="27.647557" id="use4252" transform="matrix(0.5,-0.8660254,0.8660254,0.5,-532.66673,-238.47425)" width="100%" height="100%" ns1:transform-center-y="57.680228" />
        <use x="0" y="0" ns7:href="#use4252" ns1:transform-center-x="-28.777383" ns1:transform-center-y="57.02792" id="use4254" transform="matrix(0.5,-0.8660254,0.8660254,0.5,-533.74838,-239.03721)" width="100%" height="100%" />
        <use x="0" y="0" ns7:href="#use4254" ns1:transform-center-x="-70.647623" ns1:transform-center-y="-0.74509288" id="use4256" transform="matrix(0.5,-0.8660254,0.8660254,0.5,-533.74838,-239.03721)" width="100%" height="100%" />
        <use x="0" y="0" ns7:href="#use4256" ns1:transform-center-x="-27.647551" ns1:transform-center-y="-57.680226" id="use4258" transform="matrix(0.5,-0.8660254,0.8660254,0.5,-533.74838,-239.03721)" width="100%" height="100%" />
        <use x="0" y="0" ns7:href="#use4258" ns1:transform-center-x="28.777389" ns1:transform-center-y="-57.027919" id="use4260" transform="matrix(0.5,-0.8660254,0.8660254,0.5,-533.74838,-239.03721)" width="100%" height="100%" />
        <circle style="opacity:1;fill:none;fill-opacity:1;fill-rule:nonzero;stroke:#ffffff;stroke-width:12.28584385;stroke-linecap:butt;stroke-linejoin:round;stroke-miterlimit:4;stroke-dasharray:none;stroke-dashoffset:0;stroke-opacity:1" id="path15154-5" cx="-472.93054" cy="341.51578" r="18.188499" />
      </g>
      <g id="g7557" transform="matrix(0.76584228,0,0,0.76584228,512.08203,692.97575)">
        <circle r="107.56709" cy="341.25565" cx="-472.78326" id="circle7559" style="opacity:1;fill:#ffffff;fill-opacity:1;fill-rule:nonzero;stroke:#000000;stroke-width:17.21711159;stroke-linecap:butt;stroke-linejoin:round;stroke-miterlimit:4;stroke-dasharray:none;stroke-dashoffset:0;stroke-opacity:1" />
        <circle r="87.813393" cy="341.62653" cx="-472.78326" id="circle7561" style="opacity:1;fill:#000037;fill-opacity:1;fill-rule:nonzero;stroke:none;stroke-width:0;stroke-linecap:butt;stroke-linejoin:round;stroke-miterlimit:4;stroke-dasharray:none;stroke-dashoffset:0;stroke-opacity:0" />
        <g ns1:transform-center-x="-8.4743063" transform="matrix(0.10477442,0,0,0.08587532,-506.32882,359.1076)" id="g7563">
          <path d="m -93.329197,-74.125463 a 163.9187,163.9187 0 0 1 -224.595053,-13.081173 163.9187,163.9187 0 0 1 0,-224.975674 163.9187,163.9187 0 0 1 224.595055,-13.08117" id="path7565" style="opacity:1;fill:none;fill-opacity:1;fill-rule:nonzero;stroke:#ffffff;stroke-width:125.71019745;stroke-linecap:round;stroke-linejoin:round;stroke-miterlimit:4;stroke-dasharray:none;stroke-dashoffset:0;stroke-opacity:1" mask="none" ns3:type="arc" ns3:cx="-198.69411" ns3:cy="-199.69447" ns3:rx="163.9187" ns3:ry="163.9187" ns3:start="0.87266463" ns3:end="5.4105207" ns3:open="true" />
        </g>
        <use ns1:transform-center-y="57.680228" height="100%" width="100%" transform="matrix(0.5,-0.8660254,0.8660254,0.5,-532.66673,-238.47425)" id="use7567" ns1:transform-center-x="27.647557" ns7:href="#g4247" y="0" x="0" />
        <use height="100%" width="100%" transform="matrix(0.5,-0.8660254,0.8660254,0.5,-533.74838,-239.03721)" id="use7569" ns1:transform-center-y="57.02792" ns1:transform-center-x="-28.777383" ns7:href="#use4252" y="0" x="0" />
        <use height="100%" width="100%" transform="matrix(0.5,-0.8660254,0.8660254,0.5,-533.74838,-239.03721)" id="use7571" ns1:transform-center-y="-0.74509288" ns1:transform-center-x="-70.647623" ns7:href="#use4254" y="0" x="0" />
        <use height="100%" width="100%" transform="matrix(0.5,-0.8660254,0.8660254,0.5,-533.74838,-239.03721)" id="use7573" ns1:transform-center-y="-57.680226" ns1:transform-center-x="-27.647551" ns7:href="#use4256" y="0" x="0" />
        <use height="100%" width="100%" transform="matrix(0.5,-0.8660254,0.8660254,0.5,-533.74838,-239.03721)" id="use7575" ns1:transform-center-y="-57.027919" ns1:transform-center-x="28.777389" ns7:href="#use4258" y="0" x="0" />
        <circle r="18.188499" cy="341.51578" cx="-472.93054" id="circle7577" style="opacity:1;fill:none;fill-opacity:1;fill-rule:nonzero;stroke:#ffffff;stroke-width:12.28584385;stroke-linecap:butt;stroke-linejoin:round;stroke-miterlimit:4;stroke-dasharray:none;stroke-dashoffset:0;stroke-opacity:1" />
      </g>
    </g>
  </g>
</svg>