<svg xmlns="http://www.w3.org/2000/svg" xmlns:dc="http://purl.org/dc/elements/1.1/" xmlns:ns1="http://www.inkscape.org/namespaces/inkscape" xmlns:ns2="http://www.openswatchbook.org/uri/2009/osb" xmlns:ns3="http://sodipodi.sourceforge.net/DTD/sodipodi-0.dtd" xmlns:ns5="http://creativecommons.org/ns#" xmlns:rdf="http://www.w3.org/1999/02/22-rdf-syntax-ns#" width="300" height="400" viewBox="0 0 300 400">
    <g id="layer1">
        <path id="rect4164" fill="#f5f0eb" stroke="none" d="M 40 -0.078644 L 260.05896 -0.078644 C 282.15036 -0.078644 300.05896 17.829987 300.05896 39.921356 L 300.05896 360.699432 C 300.05896 382.790802 282.15036 400.699493 260.05896 400.699493 L 40 400.699493 C 17.908609 400.699493 0 382.790802 0 360.699432 L 0 39.921356 C 0 17.829987 17.908609 -0.078644 40 -0.078644 Z" />
        <filter id="filter1" x="0" y="0" width="300" height="400" filterUnits="userSpaceOnUse" primitiveUnits="userSpaceOnUse" color-interpolation-filters="sRGB">
            <feGaussianBlur stdDeviation="2.51" />
        </filter>
        <path id="path4166" fill="#ffffff" fill-rule="evenodd" stroke="none" filter="url(#filter1)" d="M 5.749585 123.960052 C 1.059294 94.744995 -5.854341 34.896484 9.102864 15.312103 C 28.58617 -7.759094 234.690918 -2.735626 263.337128 16.942505 C 275.73172 24.661011 77.927017 25.078491 55.587055 50.360779 C 33.767704 74.533691 10.956804 162.043167 5.749585 123.960052 Z" />
        <filter id="filter2" x="0" y="0" width="300" height="400" filterUnits="userSpaceOnUse" primitiveUnits="userSpaceOnUse" color-interpolation-filters="sRGB">
            <feGaussianBlur stdDeviation="2.51" />
        </filter>
        <path id="path4221" fill="#000000" fill-opacity="0.196078" fill-rule="evenodd" stroke="none" filter="url(#filter2)" d="M 300.202179 300.507141 C 303.528992 309.820923 310.450592 368.96106 294.883972 391.133667 C 274.606812 417.254028 75.448372 407.591675 63.328899 401.065552 C 52.254589 395.748535 241.932571 401.006653 268.180176 366.199097 C 289.773651 336.198486 294.68103 284.020691 300.202179 300.507141 Z" />
    </g>
<defs id="defs4">
    <ns1:path-effect effect="skeletal" id="path-effect7963" is_visible="true" pattern="m -90.825902,-314.06958 23.03016,41.38503 13.798268,-41.38503 z" copytype="repeated_stretched" prop_scale="1" scale_y_rel="false" spacing="0" normal_offset="0" tang_offset="0" prop_units="false" vertical_pattern="false" fuse_tolerance="0" pattern-nodetypes="cccc" />
    <ns1:path-effect effect="skeletal" id="path-effect7830" is_visible="true" pattern="M -12.828427,33.715729 -17,-11 l 9.0000001,0 z" copytype="repeated_stretched" prop_scale="-1" scale_y_rel="false" spacing="5.1" normal_offset="0" tang_offset="0" prop_units="false" vertical_pattern="false" fuse_tolerance="0" pattern-nodetypes="cccc" />
    <linearGradient id="linearGradient10055" ns2:paint="solid">
      <stop style="stop-color:#000000;stop-opacity:1;" offset="0" id="stop10057" />
    </linearGradient>
    <marker ns1:stockid="Arrow1Lstart" orient="auto" refY="0" refX="0" id="Arrow1Lstart" style="overflow:visible" ns1:isstock="true">
      <path id="path4978" d="M 0,0 5,-5 -12.5,0 5,5 0,0 Z" style="fill:#000000;fill-opacity:1;fill-rule:evenodd;stroke:#ff5c00;stroke-width:1pt;stroke-opacity:1" transform="matrix(0.8,0,0,0.8,10,0)" ns1:connector-curvature="0" />
    </marker>
    <clipPath clipPathUnits="userSpaceOnUse" id="clipPath4243">
      <circle style="opacity:1;fill:#000000;fill-opacity:0.29670332;fill-rule:nonzero;stroke:#000000;stroke-width:19.13299942;stroke-linecap:butt;stroke-linejoin:round;stroke-miterlimit:4;stroke-dasharray:none;stroke-dashoffset:0;stroke-opacity:1" id="circle4245" cx="-264.65997" cy="-198.20665" r="293.95438" />
    </clipPath>
    <clipPath clipPathUnits="userSpaceOnUse" id="clipPath7847">
      <ellipse style="opacity:1;fill:#822600;fill-opacity:1;fill-rule:nonzero;stroke:none;stroke-width:12;stroke-linecap:round;stroke-linejoin:round;stroke-miterlimit:4;stroke-dasharray:none;stroke-dashoffset:0;stroke-opacity:1" id="ellipse7849" cx="394" cy="552.36218" rx="349.49533" ry="216" />
    </clipPath>
    <clipPath clipPathUnits="userSpaceOnUse" id="clipPath4243-1">
      <circle style="opacity:1;fill:#000000;fill-opacity:0.29670332;fill-rule:nonzero;stroke:#000000;stroke-width:19.13299942;stroke-linecap:butt;stroke-linejoin:round;stroke-miterlimit:4;stroke-dasharray:none;stroke-dashoffset:0;stroke-opacity:1" id="circle4245-4" cx="-264.65997" cy="-198.20665" r="293.95438" />
    </clipPath>
    <clipPath clipPathUnits="userSpaceOnUse" id="clipPath7876">
      <circle style="opacity:1;fill:#000000;fill-opacity:0.29670332;fill-rule:nonzero;stroke:#000000;stroke-width:19.13299942;stroke-linecap:butt;stroke-linejoin:round;stroke-miterlimit:4;stroke-dasharray:none;stroke-dashoffset:0;stroke-opacity:1" id="circle7878" cx="-264.65997" cy="-198.20665" r="293.95438" />
    </clipPath>
    <clipPath clipPathUnits="userSpaceOnUse" id="clipPath14693">
      <rect style="opacity:1;fill:#a53c3c;fill-opacity:1;fill-rule:nonzero;stroke:none;stroke-width:8;stroke-linecap:round;stroke-linejoin:round;stroke-miterlimit:4;stroke-dasharray:none;stroke-dashoffset:0;stroke-opacity:1" id="rect14695" width="131.78395" height="168.82127" x="-332.59583" y="383.49765" rx="1.2551664" ry="3.7514515" transform="matrix(0.99939083,-0.03489951,0.03489951,0.99939083,0,0)" />
    </clipPath>
    <clipPath clipPathUnits="userSpaceOnUse" id="clipPath14952">
      <ellipse style="opacity:1;fill:#a53c3c;fill-opacity:1;fill-rule:nonzero;stroke:none;stroke-width:7;stroke-linecap:round;stroke-linejoin:round;stroke-miterlimit:4;stroke-dasharray:none;stroke-dashoffset:0;stroke-opacity:1" id="ellipse14954" cx="-271.34384" cy="647.25604" rx="69.057365" ry="116.91089" transform="matrix(0.99939083,-0.03489951,0.03489951,0.99939083,0,0)" />
    </clipPath>
  </defs>
  <ns3:namedview id="base" pagecolor="#aeffff" bordercolor="#666666" borderopacity="1" ns1:pageopacity="0" ns1:pageshadow="2" ns1:zoom="1.0109639" ns1:cx="-92.357138" ns1:cy="342.0988" ns1:document-units="px" ns1:current-layer="layer1" showgrid="true" ns1:window-width="1920" ns1:window-height="1017" ns1:window-x="1912" ns1:window-y="-8" ns1:window-maximized="1" showguides="true" ns1:guide-bbox="true" units="px">
    <ns1:grid type="xygrid" id="grid4774" visible="true" dotted="false" color="#3f3fff" opacity="0.03921569" empcolor="#3f3fff" empopacity="0.07843137" enabled="false" />
    <ns3:guide position="150,200" orientation="0,1" id="guide8231" ns1:label="" ns1:color="rgb(0,0,255)" />
    <ns3:guide position="150,200" orientation="1,0" id="guide8233" ns1:label="" ns1:color="rgb(0,0,255)" />
  </ns3:namedview>
  <metadata id="metadata7">
    <rdf:RDF>
      <ns5:Work rdf:about="">
        <dc:format>image/svg+xml</dc:format>
        <dc:type rdf:resource="http://purl.org/dc/dcmitype/StillImage" />
        <dc:title />
      </ns5:Work>
    </rdf:RDF>
  </metadata>
  <g ns1:label="Layer 1" ns1:groupmode="layer" id="layer1" transform="translate(0,-652.36216)">
    <g id="g4192" transform="matrix(0.85008915,0,0,0.93538583,19.53046,57.10894)">
      <path ns3:nodetypes="cccccccc" ns1:connector-curvature="0" id="path4166" d="m 18.30334,756.6 c -9.5861174,1.25345 -21.0440188,-11.12964 -7.344369,-14.65998 43.689934,-8.44524 191.763199,-31.91375 208.715039,-38.96975 14.88198,-4.47664 48.7794,19.64597 69.77151,30.82355 13.03521,7.62589 7.09752,16.27427 -2.93775,20.17489 -8.12469,2.44737 -55.98052,6.84692 -81.61317,3.75897 -4.8897,-0.5 -3.03411,-12.30852 -13.95543,-14.00216 C 140.83486,734.41525 69.224299,750.33502 18.30334,756.6 Z" style="fill:#19328c;fill-opacity:1;fill-rule:evenodd;stroke:none;stroke-width:1px;stroke-linecap:butt;stroke-linejoin:miter;stroke-opacity:1" />
      <path ns3:nodetypes="cccsccccccsc" ns1:connector-curvature="0" id="path4168" d="m 202.30089,755.15533 c -1.27562,3.78866 -1.92477,9.05905 -4.62306,10.31729 -5.17933,1.7767 -10.93285,0.56235 -13.80762,5.00084 -4.18958,6.73156 -29.81038,25.81302 -47.58108,39.89277 -5.03872,3.99218 -13.55856,1.05692 -14.10863,-6.38647 l -0.0687,27.46438 12.61993,-0.6238 c 10.98748,-8.58886 41.27908,-37.35888 54.83042,-37.69627 10.77175,-0.85493 23.24146,-4.16643 26.20981,-11.33902 2.49974,-6.40744 -4.91423,-10.92996 -4.22864,-14.50428 1.06948,-4.17667 9.93603,-8.48091 12.90992,-8.51388 5.07625,-0.0563 -20.88362,-7.64511 -22.15235,-3.61156 z" style="fill:#19328c;fill-opacity:1;fill-rule:evenodd;stroke:none;stroke-width:1px;stroke-linecap:butt;stroke-linejoin:miter;stroke-opacity:1" />
      <path ns3:nodetypes="ccccccccccccc" ns1:connector-curvature="0" id="path4170" d="M 44.513437,845.65221 C 96.654824,833.25125 219.71831,794.8025 237.75017,801.99454 c 22.3396,10.87105 63.54417,36.44588 64.11439,47.24215 0.22691,10.50433 0.0984,11.39774 -8.75819,19.87413 -13.17018,12.93087 -55.35363,77.18637 -61.49898,101.9057 -1.42211,6.27152 -0.44292,18.40166 -5.16715,23.4281 -6.61336,7.36518 -88.04586,-1.12959 -141.055824,-3.22941 -17.921009,-0.60114 -26.244151,-18.98182 0.533046,-19.54016 34.105198,-0.61411 92.367578,-2.02228 99.275418,-10.49309 6.23883,-7.95297 49.26453,-97.45139 49.36461,-107.09074 0.10549,-6.04568 -10.73558,-20.20992 -17.19309,-24.29398 -7.88187,-5.57042 -118.387423,28.03071 -167.577947,35.01891 z" style="fill:#19328c;fill-opacity:1;fill-rule:evenodd;stroke:none;stroke-width:1px;stroke-linecap:butt;stroke-linejoin:miter;stroke-opacity:1" />
      <path ns3:nodetypes="ccccc" ns1:connector-curvature="0" id="path4172" d="m 22.789896,858.99298 c 13.914207,26.906 43.909736,76.58459 55.890318,124.51516 l 32.083776,-2.12639 C 102.82771,945.31445 83.44735,884.02726 64.641487,853.9626 30.77162,800.25976 -5.5262875,807.3679 22.789896,858.99298 Z" style="fill:#19328c;fill-opacity:1;fill-rule:evenodd;stroke:none;stroke-width:1px;stroke-linecap:butt;stroke-linejoin:miter;stroke-opacity:1" />
      <path ns3:nodetypes="ccccc" ns1:connector-curvature="0" id="path4174" d="m 121.1644,783.92288 c -3.21262,-15.5446 -15.49505,-12.91539 -13.58709,3.49686 l 18.46383,193.39277 14.14333,-0.69937 z" style="fill:#19328c;fill-opacity:1;fill-rule:evenodd;stroke:none;stroke-width:1px;stroke-linecap:butt;stroke-linejoin:miter;stroke-opacity:1" />
      <path ns3:nodetypes="ccccc" ns1:connector-curvature="0" id="path4176" d="m 189.6572,785.11604 -13.32425,0 -25.12742,191.8783 12.92012,0 z" style="fill:#19328c;fill-opacity:1;fill-rule:evenodd;stroke:none;stroke-width:1px;stroke-linecap:butt;stroke-linejoin:miter;stroke-opacity:1" />
    </g>
  </g>
</svg>